<svg width="24" height="24" viewBox="0 0 24 24" fill="none" xmlns="http://www.w3.org/2000/svg">
<path d="M20.4751 7.80418C20.4854 7.98926 20.4854 8.17435 20.4854 8.34918C20.4828 9.48784 20.3166 10.6202 19.9918 11.7116C19.3075 14.2267 17.8048 16.4422 15.7212 18.0082C13.6375 19.5742 11.0916 20.4015 8.48539 20.3595C6.19114 20.362 3.94506 19.7014 2.01755 18.4571C2.35185 18.4985 2.6884 18.5191 3.02525 18.5188C4.92368 18.5206 6.76741 17.8831 8.25925 16.709C7.38056 16.6925 6.5289 16.4023 5.82296 15.8789C5.11702 15.3554 4.59195 14.6248 4.32093 13.7888C4.58255 13.8336 4.84731 13.8576 5.11273 13.8608C5.49171 13.8622 5.869 13.8102 6.23351 13.7065C5.33108 13.5278 4.5123 13.0577 3.90296 12.3685C3.29363 11.6793 2.92747 10.8091 2.86075 9.89157C2.84365 9.78622 2.83675 9.67948 2.84016 9.57281V9.52139C3.42619 9.84758 4.0823 10.0275 4.75274 10.0458C4.17568 9.66117 3.7028 9.13968 3.37626 8.52786C3.04973 7.91604 2.87969 7.23292 2.88133 6.53942C2.88059 5.79267 3.07558 5.05878 3.44687 4.41088C4.50588 5.71573 5.82784 6.78292 7.32667 7.54297C8.8255 8.30301 10.4676 8.73887 12.1461 8.82217C11.9337 7.91735 12.026 6.96772 12.4088 6.1208C12.7916 5.27387 13.4433 4.57706 14.2628 4.1386C15.0823 3.70014 16.0236 3.54458 16.9406 3.69608C17.8576 3.84758 18.6989 4.29767 19.3338 4.97642C20.2806 4.78956 21.1883 4.44177 22.0175 3.94814C22.0532 4.66403 21.9339 5.37918 21.6677 6.04469C21.4015 6.7102 20.9947 7.31038 20.4751 7.80418Z" fill="white"/>
</svg>
